<svg xmlns="http://www.w3.org/2000/svg" width="860" height="260" viewBox="0 0 860 260" role="img" aria-label="npm install triauth">
  <title>npm install triauth</title>
  <defs>
    <pattern id="tg" x="0" y="0" width="52" height="58" patternUnits="userSpaceOnUse" patternTransform="rotate(0)"><rect x="6.00" y="3.00" width="7.00" height="7.00" rx="1.60" fill="#6b80d6" opacity="0.1"/><rect x="16.18" y="11.91" width="7.00" height="7.00" rx="1.60" fill="#6b80d6" opacity="0.1"/><rect x="6.00" y="20.82" width="7.00" height="7.00" rx="1.60" fill="#6b80d6" opacity="0.1"/><rect x="32.00" y="32.00" width="7.00" height="7.00" rx="1.60" fill="#6b80d6" opacity="0.1"/><rect x="42.18" y="40.91" width="7.00" height="7.00" rx="1.60" fill="#6b80d6" opacity="0.1"/><rect x="32.00" y="49.82" width="7.00" height="7.00" rx="1.60" fill="#6b80d6" opacity="0.1"/></pattern>
    <filter id="sh" x="-20%" y="-20%" width="140%" height="160%">
      <feDropShadow dx="0" dy="6" stdDeviation="12" flood-color="rgba(0,0,0,0.45)"/>
    </filter>
  </defs>
  <rect width="860" height="260" fill="#14163a"/>
  <rect width="860" height="260" fill="url(#tg)"/>
  <rect x="40" y="44" width="780" height="172" rx="22" fill="#1b1d44" stroke="#4a63cc" stroke-width="2" filter="url(#sh)"/>
  <circle cx="72" cy="70" r="5" fill="#5a6fd0"/><circle cx="92" cy="70" r="5" fill="#8aa0ff"/><circle cx="112" cy="70" r="5" fill="#c4cad6"/>
  <text x="72" y="158" font-family="'SFMono-Regular',Consolas,'Liberation Mono',Menlo,'Courier New',monospace" font-size="44" font-weight="700" xml:space="preserve"><tspan fill="#8aa0ff">$</tspan><tspan fill="#c4cad6"> npm install </tspan><tspan fill="#8aa0ff">triauth</tspan></text>
  <rect x="740" y="122" width="26" height="36" rx="3" fill="#8aa0ff" opacity="0.9"/>
</svg>
